<?xml version="1.0" standalone="no"?>
<!DOCTYPE svg PUBLIC "-//W3C//DTD SVG 20010904//EN"
 "http://www.w3.org/TR/2001/REC-SVG-20010904/DTD/svg10.dtd">
<svg version="1.0" xmlns="http://www.w3.org/2000/svg"
 width="1174.000000pt" height="750.000000pt" viewBox="0 0 1174.000000 750.000000"
 preserveAspectRatio="xMidYMid meet">

<g transform="translate(0.000000,750.000000) scale(0.100000,-0.100000)"
fill="#000000" stroke="none">
<path d="M1055 7489 c-523 -54 -863 -317 -989 -765 -65 -228 -60 72 -63 -3492
l-3 -3232 600 0 600 0 0 3125 0 3125 1900 0 1900 0 -329 -652 c-181 -359 -550
-1091 -819 -1626 l-490 -972 742 -1498 743 -1497 2944 -3 c2119 -2 2972 0
3043 8 149 17 278 53 391 109 176 88 282 195 370 376 82 169 119 323 136 575
l12 165 -759 1532 -759 1532 -628 1 -627 0 116 -232 c195 -389 1394 -2810
1394 -2814 0 -2 -1123 -4 -2495 -4 l-2495 0 -438 876 -437 875 609 1212 c335
667 617 1225 627 1241 l18 29 565 -1132 566 -1131 620 0 c407 0 620 3 620 10
0 6 -337 685 -750 1510 -412 825 -750 1502 -750 1505 0 3 1125 5 2500 5 l2500
0 0 625 0 625 -5302 -1 c-2917 -1 -5339 -5 -5383 -10z"/>
</g>
</svg>
