<?xml version="1.0" standalone="no"?>
<!DOCTYPE svg PUBLIC "-//W3C//DTD SVG 20010904//EN"
 "http://www.w3.org/TR/2001/REC-SVG-20010904/DTD/svg10.dtd">
<svg version="1.0" xmlns="http://www.w3.org/2000/svg"
 width="122.000000pt" height="80.000000pt" viewBox="0 0 122.000000 80.000000"
 preserveAspectRatio="xMidYMid meet">

<g transform="translate(0.000000,80.000000) scale(0.100000,-0.100000)"
fill="#000000" stroke="none">
<path d="M101 767 c-19 -7 -44 -25 -55 -40 -20 -28 -21 -39 -21 -365 l0 -337
58 -3 57 -3 0 316 0 315 190 0 c105 0 190 -3 190 -6 0 -3 -36 -77 -80 -164
l-81 -159 76 -150 75 -151 298 0 c342 0 356 3 381 75 13 40 13 40 -63 198
l-75 157 -64 0 -64 0 45 -92 c25 -51 58 -119 74 -150 l28 -58 -250 0 -250 0
-40 80 c-22 44 -40 85 -40 92 0 14 113 246 120 247 3 0 28 -49 57 -110 l52
-109 64 0 63 0 -72 143 c-40 78 -73 145 -74 150 0 4 113 7 250 7 l251 0 -3 63
-3 62 -530 2 c-391 1 -539 -1 -564 -10z"/>
</g>
</svg>
