<?xml version="1.0" standalone="no"?>
<!DOCTYPE svg PUBLIC "-//W3C//DTD SVG 20010904//EN"
 "http://www.w3.org/TR/2001/REC-SVG-20010904/DTD/svg10.dtd">
<svg version="1.0" xmlns="http://www.w3.org/2000/svg"
 width="200.000000pt" height="131.000000pt" viewBox="0 0 200.000000 131.000000"
 preserveAspectRatio="xMidYMid meet">

<g transform="translate(0.000000,131.000000) scale(0.100000,-0.100000)"
fill="#000000" stroke="none">
<path d="M170 1258 c-53 -15 -91 -47 -114 -97 -20 -45 -21 -60 -24 -583 l-3
-538 101 0 100 0 2 510 3 511 308 2 c169 1 307 -1 307 -6 0 -4 -59 -124 -130
-267 l-130 -260 122 -245 123 -245 498 0 c398 0 504 3 530 14 48 20 84 68 96
128 l10 53 -127 253 -128 253 -102 2 c-56 1 -102 1 -102 -1 0 -1 54 -110 120
-242 66 -132 120 -243 120 -247 0 -5 -183 -7 -407 -6 l-408 3 -70 140 -70 140
100 200 c55 110 102 200 105 200 3 0 46 -81 95 -180 l90 -180 102 0 103 0
-120 240 c-66 132 -120 243 -120 247 0 5 183 8 407 8 l408 0 0 100 0 100 -880
2 c-560 1 -893 -2 -915 -9z"/>
</g>
</svg>
