<?xml version="1.0" standalone="no"?>
<!DOCTYPE svg PUBLIC "-//W3C//DTD SVG 20010904//EN"
 "http://www.w3.org/TR/2001/REC-SVG-20010904/DTD/svg10.dtd">
<svg version="1.0" xmlns="http://www.w3.org/2000/svg"
 width="46.000000pt" height="30.000000pt" viewBox="0 0 46.000000 30.000000"
 preserveAspectRatio="xMidYMid meet">

<g transform="translate(0.000000,30.000000) scale(0.100000,-0.100000)"
fill="#000000" stroke="none">
<path d="M22 277 c-21 -23 -22 -32 -20 -148 3 -120 4 -124 26 -127 22 -3 22
-2 22 117 l0 121 70 0 c39 0 70 -2 70 -5 0 -2 -12 -29 -27 -60 l-27 -54 29
-61 29 -60 111 0 c103 0 113 2 133 23 l22 23 -33 62 c-25 48 -37 62 -54 62
-28 0 -28 0 2 -60 l25 -50 -93 0 -93 0 -16 33 c-14 30 -14 35 5 75 12 23 24
42 27 42 4 0 15 -18 25 -40 14 -30 24 -40 42 -40 l23 0 -25 50 c-14 27 -25 52
-25 54 0 3 42 7 93 8 91 3 92 3 92 28 l0 25 -206 3 c-204 2 -205 2 -227 -21z"/>
</g>
</svg>
