<?xml version="1.0" standalone="no"?>
<!DOCTYPE svg PUBLIC "-//W3C//DTD SVG 20010904//EN"
 "http://www.w3.org/TR/2001/REC-SVG-20010904/DTD/svg10.dtd">
<svg version="1.0" xmlns="http://www.w3.org/2000/svg"
 width="183.000000pt" height="120.000000pt" viewBox="0 0 183.000000 120.000000"
 preserveAspectRatio="xMidYMid meet">

<g transform="translate(0.000000,120.000000) scale(0.100000,-0.100000)"
fill="#000000" stroke="none">
<path d="M161 1154 c-49 -15 -85 -44 -109 -89 -15 -27 -17 -83 -17 -530 l0
-500 88 0 88 0 -1 467 0 467 285 3 c157 2 285 0 285 -4 0 -3 -54 -112 -121
-242 l-121 -236 113 -230 112 -230 442 0 c378 0 448 2 488 16 58 20 83 50 97
119 l11 53 -116 231 -115 231 -95 0 -95 0 110 -220 c60 -121 110 -223 110
-227 0 -5 -168 -7 -373 -5 l-373 2 -63 128 -63 128 91 182 c50 101 95 181 99
178 4 -2 43 -77 87 -165 l80 -161 92 0 c51 0 93 2 93 5 0 3 -50 104 -110 225
-60 120 -110 220 -110 222 0 2 168 3 372 3 l373 0 0 95 0 95 -795 2 c-654 1
-803 -1 -839 -13z"/>
</g>
</svg>
