<?xml version="1.0" standalone="no"?>
<!DOCTYPE svg PUBLIC "-//W3C//DTD SVG 20010904//EN"
 "http://www.w3.org/TR/2001/REC-SVG-20010904/DTD/svg10.dtd">
<svg version="1.0" xmlns="http://www.w3.org/2000/svg"
 width="98.000000pt" height="64.000000pt" viewBox="0 0 98.000000 64.000000"
 preserveAspectRatio="xMidYMid meet">

<g transform="translate(0.000000,64.000000) scale(0.100000,-0.100000)"
fill="#000000" stroke="none">
<path d="M62 604 c-49 -34 -52 -55 -52 -329 l0 -256 53 3 52 3 3 248 2 247
150 0 150 0 -65 -130 -65 -130 60 -120 60 -120 248 0 c269 0 278 2 300 57 11
25 6 40 -54 156 l-65 127 -49 0 -50 0 60 -120 60 -120 -200 0 -200 0 -35 70
-35 70 47 95 c26 52 50 95 53 95 3 0 25 -38 48 -85 l42 -85 50 0 50 0 -60 120
-60 120 205 0 205 0 0 50 0 50 -443 0 c-385 0 -445 -2 -465 -16z"/>
</g>
</svg>
